# Blender 4.2.3 LTS
# www.blender.org
mtllib pit.mtl
o visual.003
v -6.253279 0.000000 7.221137
v -6.253279 0.000000 -7.313858
v 6.174926 0.000000 7.221137
v 6.174927 0.000000 -7.313858
v 0.275361 0.000000 7.221137
v -0.417717 0.000000 -7.313858
v -4.802573 -0.089086 -1.344437
v -4.640210 -0.012139 1.667097
v 6.174926 0.000000 -2.897256
v 2.002053 -5.845782 -3.315508
v 3.499331 -5.845782 -1.473032
v 6.174926 0.000000 2.141810
v -6.253279 0.000000 -2.234532
v 4.468299 0.012139 -1.846848
v -3.163347 -0.132006 -3.876771
v 2.566362 -0.069445 -4.187276
v 0.176751 0.124504 4.782888
v 2.991435 0.132006 3.697018
v -0.348666 -0.124504 -4.962638
v -6.253279 0.000000 2.804535
v -2.738278 0.069445 4.007525
v 4.630661 0.089086 1.164685
v 3.734778 -0.516771 -1.563864
v 2.139173 -0.585215 -3.527337
v 0.134438 -0.422504 3.998068
v 2.495784 -0.416210 3.087090
v -0.306354 -0.631405 -4.177817
v -2.667694 -0.637699 -3.266841
v -2.311086 -0.468694 3.347586
v 3.870990 -0.452217 0.962623
v -4.042902 -0.601692 -1.142374
v -3.906690 -0.537138 1.384115
v 0.120857 -5.845782 3.746154
v 2.336685 -5.845782 2.891313
v -0.292771 -5.845782 -3.925903
v -2.508598 -5.845782 -3.071066
v -2.173967 -5.845782 3.135757
v 3.627147 -5.845782 0.897764
v -3.799059 -5.845782 -1.077515
v -3.671242 -5.845782 1.293282
v 4.790342 0.050612 -0.355756
v 6.174926 0.000000 -0.393013
v 4.043746 -0.484494 -0.315296
v 3.804104 -5.845782 -0.302308
v -6.253279 -5.845782 7.221137
v -6.253279 -5.845782 -7.313858
v 6.174926 -5.845782 7.221137
v 6.174927 -5.845782 -7.313858
v 0.275361 -5.845782 7.221137
v -0.417717 -5.845782 -7.313858
v 6.174926 -5.845782 -2.897256
v 6.174926 -5.845782 2.141810
v -6.253279 -5.845782 -2.234532
v -6.253279 -5.845782 2.804535
v 6.174926 -5.845782 -0.393013
vn 0.5680 0.8214 -0.0516
vn -0.2146 0.8067 -0.5507
vn -0.5644 0.8183 0.1089
vn -0.1597 0.8253 0.5417
vn -0.4583 0.8196 0.3439
vn 0.1367 0.8092 -0.5714
vn 0.0448 0.9990 0.0040
vn -0.0166 0.9998 -0.0074
vn 0.0042 0.9992 0.0407
vn 0.0044 0.9991 0.0419
vn -0.0082 0.9995 0.0293
vn -0.0082 0.9995 0.0301
vn 0.0322 0.9994 -0.0102
vn -0.0173 0.9998 -0.0072
vn 0.0500 0.9987 -0.0075
vn 0.0432 0.9991 0.0037
vn -0.7757 0.0453 0.6295
vn 0.2564 0.0444 -0.9656
vn -0.9684 0.0454 0.2451
vn 0.7749 0.0449 -0.6305
vn 0.3595 0.0460 0.9320
vn 0.9975 0.0454 -0.0544
vn 0.4789 0.8264 0.2960
vn 0.1999 0.8279 0.5240
vn 0.4357 0.8148 -0.3824
vn -0.4881 0.8081 -0.3297
vn 0.8388 0.0459 0.5426
vn -0.2572 0.0458 0.9653
vn -0.8385 0.0443 -0.5431
vn -0.3596 0.0442 -0.9320
vn -0.9891 0.0451 -0.1402
vn 0.0164 0.9998 -0.0110
vn -0.5728 0.8149 -0.0887
vn -0.0000 -0.0000 1.0000
vn 1.0000 -0.0000 -0.0000
vn -1.0000 -0.0000 -0.0000
vn -0.0000 -0.0000 -1.0000
vn -0.0000 -1.0000 -0.0000
vt 1.000000 0.591335
vt 1.000000 0.435970
vt 1.000000 0.376513
vt 1.000000 0.388002
vt 1.000000 0.506839
vt 1.000000 0.552529
vt 1.000000 0.506839
vt 1.000000 0.631298
vt 1.000000 0.642298
vt 1.000000 0.382412
vt 1.000000 0.638604
vt 1.000000 0.672637
vt 1.000000 0.588859
vt 1.000000 0.556051
vt 1.000000 0.346907
vt 1.000000 0.672637
vt 1.000000 0.428234
vt 1.000000 0.461150
vt 1.000000 0.456390
vt 1.000000 0.506220
s 0
f 7/1/1 8/2/1 32/2/1 31/1/1
f 17/3/2 18/4/2 26/4/2 25/3/2
f 41/5/3 14/6/3 23/6/3 43/7/3
f 16/8/4 19/9/4 27/9/4 24/8/4
f 14/6/5 16/8/5 24/8/5 23/6/5
f 21/10/6 17/3/6 25/3/6 29/10/6
f 7/1/7 15/11/7 2/12/7 13/13/7
f 16/8/8 14/6/8 9/14/8 4/12/8
f 18/4/9 17/3/9 5/15/9 3/15/9
f 15/11/10 19/9/10 6/16/10 2/12/10
f 17/3/11 21/10/11 1/15/11 5/15/11
f 19/9/12 16/8/12 4/12/12 6/16/12
f 8/2/13 7/1/13 13/13/13 20/17/13
f 21/10/14 8/2/14 20/17/14 1/15/14
f 41/5/15 22/18/15 12/19/15 42/20/15
f 22/18/16 18/4/16 3/15/16 12/19/16
f 23/6/17 24/8/17 10/8/17 11/6/17
f 29/10/18 25/3/18 33/3/18 37/10/18
f 43/7/19 23/6/19 11/6/19 44/5/19
f 32/2/20 29/10/20 37/10/20 40/2/20
f 27/9/21 28/11/21 36/11/21 35/9/21
f 31/1/22 32/2/22 40/2/22 39/1/22
f 15/11/23 7/1/23 31/1/23 28/11/23
f 19/9/24 15/11/24 28/11/24 27/9/24
f 8/2/25 21/10/25 29/10/25 32/2/25
f 18/4/26 22/18/26 30/18/26 26/4/26
f 28/11/27 31/1/27 39/1/27 36/11/27
f 24/8/28 27/9/28 35/9/28 10/8/28
f 26/4/29 30/18/29 38/18/29 34/4/29
f 25/3/30 26/4/30 34/4/30 33/3/30
f 30/18/31 43/7/31 44/5/31 38/18/31
f 14/6/32 41/5/32 42/20/32 9/14/32
f 22/18/33 41/5/33 43/7/33 30/18/33
f 5/15/34 1/15/34 45/15/34 49/15/34
f 4/12/35 9/14/35 51/14/35 48/12/35
f 1/15/36 20/17/36 54/17/36 45/15/36
f 9/14/35 42/20/35 55/20/35 51/14/35
f 6/16/37 4/12/37 48/12/37 50/16/37
f 3/15/34 5/15/34 49/15/34 47/15/34
f 12/19/35 3/15/35 47/15/35 52/19/35
f 42/20/35 12/19/35 52/19/35 55/20/35
f 2/12/37 6/16/37 50/16/37 46/12/37
f 13/13/36 2/12/36 46/12/36 53/13/36
f 20/17/36 13/13/36 53/13/36 54/17/36
f 10/8/38 35/9/38 50/16/38 48/12/38
f 36/11/38 39/1/38 53/13/38 46/12/38
f 53/13/38 39/1/38 40/2/38 54/17/38
f 54/17/38 40/2/38 37/10/38 45/15/38
f 33/3/38 49/15/38 45/15/38 37/10/38
f 34/4/38 47/15/38 49/15/38 33/3/38
f 38/18/38 52/19/38 47/15/38 34/4/38
f 44/5/38 55/20/38 52/19/38 38/18/38
f 11/6/38 51/14/38 55/20/38 44/5/38
f 48/12/38 51/14/38 11/6/38 10/8/38
f 50/16/38 35/9/38 36/11/38 46/12/38
