# Blender 4.2.3 LTS
# www.blender.org
mtllib collision.mtl
o Plane.002
v 4.275553 0.000000 -3.774934
v 9.087358 0.000000 -0.247130
v 4.275553 0.000000 -5.774934
v 6.275553 0.000000 -5.774934
v 13.611982 0.000000 -0.817825
v 13.363289 0.000000 -7.383664
v 17.552223 0.000000 -3.466570
v 17.303530 0.000000 -10.032410
v 21.850883 0.000000 -4.967358
v 21.602190 0.000000 -11.533197
v 24.749971 0.000000 -5.887821
v 24.501278 0.000000 -12.453660
v 29.486269 0.000000 -5.457287
v 29.237576 0.000000 -12.023126
v 34.240486 0.000000 -4.817081
v 33.991791 0.000000 -11.382920
v 37.710934 -0.049512 -3.203881
v 37.462238 -0.049512 -9.769719
v 40.258545 -0.049512 -0.777139
v 44.693115 -0.049512 -5.625509
v 43.359432 -0.049512 1.554354
v 47.794003 -0.049512 -3.294016
v 46.040649 -0.049512 4.375461
v 50.475220 -0.049512 -0.472909
v 48.386353 -0.049512 8.293106
v 54.191399 -0.049512 5.215198
v 49.565895 -0.049512 12.104753
v 56.136063 -0.049512 12.175047
v 50.125454 -0.049512 16.954258
v 56.695621 -0.049512 17.024551
v 50.609905 -0.049512 21.871817
v 57.180073 -0.049512 21.942110
v 49.041718 -0.049512 26.338800
v 55.611885 -0.049512 26.409094
v 46.567734 -0.049512 31.663475
v 51.958382 -0.049512 35.420197
v 41.206230 -0.049512 31.949362
v 42.515984 -0.049512 38.388042
v 35.777809 -0.049512 32.643482
v 37.087563 -0.049512 39.082161
v 29.180573 -0.049512 33.266495
v 30.490326 -0.049512 39.705177
v 23.634634 -0.049512 32.980434
v 20.266539 -0.049512 38.622066
v 17.427361 -0.015352 28.375534
v 11.997423 -0.015352 32.075245
v 16.003704 -0.015352 22.381433
v 10.573767 -0.015352 26.081144
v 15.863456 -0.015352 18.601206
v 10.749093 -0.015352 14.476237
v 15.539638 -0.015352 14.164892
v 10.425275 -0.015352 10.039925
v 16.990345 -0.015352 12.578182
v 10.574232 -0.015352 6.406300
v 21.771633 -0.015352 12.252094
v 14.615486 -0.015352 3.246213
v 25.029448 -0.015352 9.802840
v 23.429289 -0.015352 1.635114
v 30.600132 -0.015352 7.536893
v 29.461609 -0.015352 1.725498
v 34.092960 -0.015352 8.204839
v 38.135815 -0.015352 3.877730
v 36.541378 -0.015352 11.829978
v 42.455814 -0.015352 11.533291
v 36.984547 -0.015352 17.309175
v 42.898983 -0.015352 17.012489
v 36.992645 -0.015352 18.590752
v 42.729736 -0.015352 24.513744
v 33.936924 -0.015352 21.093266
v 37.647236 -0.015352 28.457344
v 29.962757 -0.015352 20.438036
v 26.795338 -0.015352 26.211821
v 27.941898 -0.015352 19.542500
v 22.853542 -0.015352 23.723145
v 25.286739 -0.015352 18.490335
v 4.280692 11.018510 -5.774331
v 4.280692 11.018510 -3.774331
v 9.092497 11.018510 -0.246527
v 6.280692 11.018510 -5.774331
v 13.617121 11.018510 -0.817221
v 13.368427 11.018510 -7.383061
v 17.557362 11.018510 -3.465966
v 17.308668 11.018510 -10.031806
v 21.856022 11.018510 -4.966754
v 21.607328 11.018510 -11.532594
v 24.755110 11.018510 -5.887218
v 24.506416 11.018510 -12.453056
v 29.491407 11.018510 -5.456684
v 29.242714 11.018510 -12.022522
v 34.245625 11.018510 -4.816478
v 33.996929 11.018510 -11.382317
v 37.716072 10.968998 -3.203277
v 37.467377 10.968998 -9.769115
v 40.263683 10.968998 -0.776535
v 44.698254 10.968998 -5.624906
v 43.364571 10.968998 1.554958
v 47.799141 10.968998 -3.293412
v 46.045788 10.968998 4.376064
v 50.480358 10.968998 -0.472306
v 48.391491 10.968998 8.293710
v 54.196537 10.968998 5.215801
v 49.571033 10.968998 12.105357
v 56.141201 10.968998 12.175651
v 50.130592 10.968998 16.954861
v 56.700760 10.968998 17.025154
v 50.615044 10.968998 21.872419
v 57.185211 10.968998 21.942713
v 49.046856 10.968998 26.339403
v 55.617023 10.968998 26.409697
v 46.572872 10.968998 31.664078
v 51.963520 10.968998 35.420799
v 41.211369 10.968998 31.949965
v 42.521122 10.968998 38.388645
v 35.782948 10.968998 32.644085
v 37.092701 10.968998 39.082764
v 29.185711 10.968998 33.267097
v 30.495464 10.968998 39.705780
v 23.639772 10.968998 32.981037
v 20.271677 10.968998 38.622669
v 17.432499 11.003158 28.376137
v 12.002562 11.003158 32.075848
v 16.008842 11.003158 22.382036
v 10.578905 11.003158 26.081747
v 15.868594 11.003158 18.601809
v 10.754231 11.003158 14.476841
v 15.544776 11.003158 14.165496
v 10.430413 11.003158 10.040528
v 16.995483 11.003158 12.578786
v 10.579370 11.003158 6.406300
v 21.776772 11.003158 12.252698
v 14.620625 11.003158 3.246816
v 25.034586 11.003158 9.803444
v 23.434427 11.003158 1.635718
v 30.605270 11.003158 7.537496
v 29.466747 11.003158 1.726101
v 34.098099 11.003158 8.205442
v 38.140953 11.003158 3.878333
v 36.546516 11.003158 11.830582
v 42.460953 11.003158 11.533895
v 36.989685 11.003158 17.309778
v 42.904121 11.003158 17.013092
v 36.997784 11.003158 18.591354
v 42.734875 11.003158 24.514347
v 33.942062 11.003158 21.093868
v 37.652374 11.003158 28.457947
v 29.967896 11.003158 20.438639
v 26.800476 11.003158 26.212423
v 27.947037 11.003158 19.543102
v 22.858681 11.003158 23.723747
v 25.291878 11.003158 18.490938
v 7.441073 -0.013883 6.406300
v 7.292116 -0.013883 9.901608
v 7.446212 11.004626 6.406300
v 7.297255 11.004626 9.902211
v 20.682888 -0.015352 21.188658
v 20.842360 -0.015352 18.891331
v 20.847452 11.003158 18.890423
v 20.687981 11.003158 21.187748
vn -0.0000 -1.0000 -0.0000
vn -0.0145 -0.9999 0.0006
vn -0.0027 -1.0000 -0.0026
vn -0.7596 0.0004 0.6504
vn -0.0000 1.0000 -0.0000
vn 0.0145 0.9999 -0.0006
vn 0.0027 1.0000 0.0026
vn 0.4051 -0.0001 -0.9143
vn -0.1268 0.0001 -0.9919
vn -0.6010 0.0002 0.7993
vn -0.1798 0.0001 -0.9837
vn 0.1268 -0.0001 0.9919
vn -0.2213 0.0002 -0.9752
vn 0.6009 -0.0003 0.7993
vn 0.7248 -0.0003 -0.6889
vn 0.1251 -0.0001 0.9921
vn 0.3684 -0.0001 -0.9297
vn -0.0940 0.0001 -0.9956
vn -0.7248 0.0003 0.6889
vn 0.0150 -0.0000 -0.9999
vn 0.0940 -0.0001 0.9956
vn -0.5579 0.0003 -0.8299
vn 0.3768 -0.0002 0.9263
vn -0.8580 0.0004 0.5137
vn 0.5579 -0.0003 0.8299
vn 0.0515 -0.0000 -0.9987
vn 0.8372 -0.0004 -0.5469
vn 0.2408 -0.0001 -0.9706
vn -0.1054 -0.0000 0.9944
vn -0.3296 0.0002 -0.9441
vn -0.1878 -0.0000 0.9822
vn -0.9553 0.0004 0.2956
vn 0.3296 -0.0002 0.9441
vn 0.5958 -0.0002 -0.8031
vn 0.9631 -0.0004 -0.2691
vn 0.8709 -0.0004 -0.4914
vn -0.6207 0.0002 0.7840
vn -0.3026 0.0002 -0.9531
vn -0.8287 0.0004 0.5597
vn -0.9934 0.0005 0.1146
vn 0.3026 -0.0002 0.9531
vn 0.9729 -0.0004 -0.2311
vn 0.9934 -0.0005 -0.1146
vn 0.9967 -0.0005 -0.0806
vn -0.9729 0.0004 0.2311
vn 0.0905 -0.0000 -0.9959
vn -0.9967 0.0005 0.0806
vn -0.9952 0.0005 0.0980
vn -0.0905 -0.0000 0.9959
vn 0.9993 -0.0005 -0.0371
vn 0.9952 -0.0005 -0.0980
vn 0.9997 -0.0005 0.0226
vn -0.9999 0.0005 -0.0151
vn 0.1335 -0.0000 -0.9911
vn -1.0000 0.0005 0.0063
vn -0.9435 0.0005 -0.3312
vn -0.1335 -0.0000 0.9911
vn 0.9973 -0.0005 -0.0728
vn 0.9435 -0.0005 0.3312
vn 0.6130 -0.0003 0.7901
vn -0.9973 0.0005 0.0728
vn 0.4215 -0.0001 -0.9068
vn -0.6336 0.0003 -0.7737
vn -0.9069 0.0004 -0.4214
vn -0.4215 0.0001 0.9068
vn 0.7380 -0.0004 0.6748
vn 0.9267 -0.0005 0.3757
vn -0.2026 -0.0000 0.9793
vn -0.0441 -0.0000 0.9990
vn 0.4972 -0.0002 -0.8676
vn -1.0000 0.0005 -0.0000
vn 0.1627 -0.0000 -0.9867
vn -0.0532 0.0001 -0.9986
vn -0.6897 0.0003 0.7241
vn -0.5913 0.0002 0.8065
vn -0.6160 0.0003 -0.7878
vn 0.2998 -0.0002 0.9540
vn -0.5339 0.0002 0.8456
vn 0.0680 -0.0001 0.9977
vn 0.6010 -0.0002 -0.7993
vn -0.0000 0.0001 -1.0000
vn -0.9991 0.0005 -0.0426
vn 0.0005 1.0000 -0.0000
vn -0.0005 -1.0000 -0.0000
vn -0.0000 -0.0000 -1.0000
vn -0.9976 0.0005 -0.0692
vn -0.0897 -0.0000 -0.9960
vt 0.000000 0.000000
vt 0.000000 1.000000
vt 1.000000 1.000000
vt 1.000000 0.000000
vt 1.000000 0.620149
vt 1.000000 0.620150
vt 1.000000 0.620149
vt 1.000000 0.620149
s 0
f 1/1/1 3/2/1 4/3/1 2/4/1
f 4/3/1 6/3/1 5/4/1 2/4/1
f 6/3/1 8/3/1 7/4/1 5/4/1
f 8/3/1 10/3/1 9/4/1 7/4/1
f 10/3/1 12/3/1 11/4/1 9/4/1
f 12/3/1 14/3/1 13/4/1 11/4/1
f 14/3/1 16/3/1 15/4/1 13/4/1
f 16/3/2 18/3/2 17/4/2 15/4/2
f 18/3/1 20/3/1 19/4/1 17/4/1
f 20/3/1 22/3/1 21/4/1 19/4/1
f 22/3/1 24/3/1 23/4/1 21/4/1
f 24/3/1 26/3/1 25/4/1 23/4/1
f 26/3/1 28/3/1 27/4/1 25/4/1
f 28/3/1 30/3/1 29/4/1 27/4/1
f 30/3/1 32/3/1 31/4/1 29/4/1
f 32/3/1 34/3/1 33/4/1 31/4/1
f 34/3/1 36/3/1 35/4/1 33/4/1
f 36/3/1 38/3/1 37/4/1 35/4/1
f 38/3/1 40/3/1 39/4/1 37/4/1
f 40/3/1 42/3/1 41/4/1 39/4/1
f 42/3/1 44/3/1 43/4/1 41/4/1
f 44/3/3 46/3/3 45/4/3 43/4/3
f 46/3/1 48/3/1 47/4/1 45/4/1
f 48/3/1 50/3/1 49/4/1 47/4/1
f 50/3/1 52/3/1 51/4/1 49/4/1
f 52/3/1 54/3/1 53/4/1 51/4/1
f 54/3/1 56/3/1 55/4/1 53/4/1
f 56/3/1 58/3/1 57/4/1 55/4/1
f 58/3/1 60/3/1 59/4/1 57/4/1
f 60/3/1 62/3/1 61/4/1 59/4/1
f 62/3/1 64/3/1 63/4/1 61/4/1
f 64/3/1 66/3/1 65/4/1 63/4/1
f 66/3/1 68/3/1 67/4/1 65/4/1
f 68/3/1 70/3/1 69/4/1 67/4/1
f 70/3/1 72/3/1 71/4/1 69/4/1
f 72/3/1 74/3/1 73/4/1 71/4/1
f 155/3/4 74/3/4 149/3/4 158/3/4
f 77/1/5 78/4/5 79/3/5 76/2/5
f 79/3/5 78/4/5 80/4/5 81/3/5
f 81/3/5 80/4/5 82/4/5 83/3/5
f 83/3/5 82/4/5 84/4/5 85/3/5
f 85/3/5 84/4/5 86/4/5 87/3/5
f 87/3/5 86/4/5 88/4/5 89/3/5
f 89/3/5 88/4/5 90/4/5 91/3/5
f 91/3/6 90/4/6 92/4/6 93/3/6
f 93/3/5 92/4/5 94/4/5 95/3/5
f 95/3/5 94/4/5 96/4/5 97/3/5
f 97/3/5 96/4/5 98/4/5 99/3/5
f 99/3/5 98/4/5 100/4/5 101/3/5
f 101/3/5 100/4/5 102/4/5 103/3/5
f 103/3/5 102/4/5 104/4/5 105/3/5
f 105/3/5 104/4/5 106/4/5 107/3/5
f 107/3/5 106/4/5 108/4/5 109/3/5
f 109/3/5 108/4/5 110/4/5 111/3/5
f 111/3/5 110/4/5 112/4/5 113/3/5
f 113/3/5 112/4/5 114/4/5 115/3/5
f 115/3/5 114/4/5 116/4/5 117/3/5
f 117/3/5 116/4/5 118/4/5 119/3/5
f 119/3/7 118/4/7 120/4/7 121/3/7
f 121/3/5 120/4/5 122/4/5 123/3/5
f 123/3/5 122/4/5 124/4/5 125/3/5
f 125/3/5 124/4/5 126/4/5 127/3/5
f 127/3/5 126/4/5 128/4/5 129/3/5
f 129/3/5 128/4/5 130/4/5 131/3/5
f 131/3/5 130/4/5 132/4/5 133/3/5
f 133/3/5 132/4/5 134/4/5 135/3/5
f 135/3/5 134/4/5 136/4/5 137/3/5
f 137/3/5 136/4/5 138/4/5 139/3/5
f 139/3/5 138/4/5 140/4/5 141/3/5
f 141/3/5 140/4/5 142/4/5 143/3/5
f 143/3/5 142/4/5 144/4/5 145/3/5
f 145/3/5 144/4/5 146/4/5 147/3/5
f 147/3/5 146/4/5 148/4/5 149/3/5
f 71/4/8 73/4/8 148/4/8 146/4/8
f 37/4/9 39/4/9 114/4/9 112/4/9
f 19/4/10 21/4/10 96/4/10 94/4/10
f 74/3/1 155/3/1 156/5/1 75/4/1 73/4/1
f 58/3/11 56/3/11 131/3/11 133/3/11
f 40/3/12 38/3/12 113/3/12 115/3/12
f 6/3/13 4/3/13 79/3/13 81/3/13
f 149/3/5 148/4/5 150/4/5 157/6/5 158/3/5
f 55/4/14 57/4/14 132/4/14 130/4/14
f 24/3/15 22/3/15 97/3/15 99/3/15
f 2/4/16 5/4/16 80/4/16 78/4/16
f 73/4/17 75/4/17 150/4/17 148/4/17
f 39/4/18 41/4/18 116/4/18 114/4/18
f 21/4/19 23/4/19 98/4/19 96/4/19
f 60/3/20 58/3/20 133/3/20 135/3/20
f 42/3/21 40/3/21 115/3/21 117/3/21
f 8/3/22 6/3/22 81/3/22 83/3/22
f 57/4/23 59/4/23 134/4/23 132/4/23
f 23/4/24 25/4/24 100/4/24 98/4/24
f 5/4/25 7/4/25 82/4/25 80/4/25
f 41/4/26 43/4/26 118/4/26 116/4/26
f 26/3/27 24/3/27 99/3/27 101/3/27
f 62/3/28 60/3/28 135/3/28 137/3/28
f 44/3/29 42/3/29 117/3/29 119/3/29
f 10/3/30 8/3/30 83/3/30 85/3/30
f 59/4/31 61/4/31 136/4/31 134/4/31
f 25/4/32 27/4/32 102/4/32 100/4/32
f 7/4/33 9/4/33 84/4/33 82/4/33
f 43/4/34 45/4/34 120/4/34 118/4/34
f 28/3/35 26/3/35 101/3/35 103/3/35
f 64/3/36 62/3/36 137/3/36 139/3/36
f 46/3/37 44/3/37 119/3/37 121/3/37
f 12/3/38 10/3/38 85/3/38 87/3/38
f 61/4/39 63/4/39 138/4/39 136/4/39
f 27/4/40 29/4/40 104/4/40 102/4/40
f 9/4/41 11/4/41 86/4/41 84/4/41
f 45/4/42 47/4/42 122/4/42 120/4/42
f 30/3/43 28/3/43 103/3/43 105/3/43
f 66/3/44 64/3/44 139/3/44 141/3/44
f 48/3/45 46/3/45 121/3/45 123/3/45
f 14/3/46 12/3/46 87/3/46 89/3/46
f 63/4/47 65/4/47 140/4/47 138/4/47
f 29/4/48 31/4/48 106/4/48 104/4/48
f 11/4/49 13/4/49 88/4/49 86/4/49
f 47/4/50 49/4/50 124/4/50 122/4/50
f 32/3/51 30/3/51 105/3/51 107/3/51
f 68/3/52 66/3/52 141/3/52 143/3/52
f 50/3/53 48/3/53 123/3/53 125/3/53
f 16/3/54 14/3/54 89/3/54 91/3/54
f 65/4/55 67/4/55 142/4/55 140/4/55
f 31/4/56 33/4/56 108/4/56 106/4/56
f 13/4/57 15/4/57 90/4/57 88/4/57
f 49/4/58 51/4/58 126/4/58 124/4/58
f 34/3/59 32/3/59 107/3/59 109/3/59
f 70/3/60 68/3/60 143/3/60 145/3/60
f 52/3/61 50/3/61 125/3/61 127/3/61
f 18/3/62 16/3/62 91/3/62 93/3/62
f 67/4/63 69/4/63 144/4/63 142/4/63
f 33/4/64 35/4/64 110/4/64 108/4/64
f 15/4/65 17/4/65 92/4/65 90/4/65
f 51/4/66 53/4/66 128/4/66 126/4/66
f 36/3/67 34/3/67 109/3/67 111/3/67
f 72/3/68 70/3/68 145/3/68 147/3/68
f 52/3/69 127/3/69 154/3/69 152/3/69
f 20/3/70 18/3/70 93/3/70 95/3/70
f 3/2/71 1/1/71 77/1/71 76/2/71
f 69/4/72 71/4/72 146/4/72 144/4/72
f 35/4/73 37/4/73 112/4/73 110/4/73
f 17/4/74 19/4/74 94/4/74 92/4/74
f 1/1/75 2/4/75 78/4/75 77/1/75
f 56/3/76 54/3/76 129/3/76 131/3/76
f 38/3/77 36/3/77 111/3/77 113/3/77
f 74/3/78 72/3/78 147/3/78 149/3/78
f 53/4/79 55/4/79 130/4/79 128/4/79
f 22/3/80 20/3/80 95/3/80 97/3/80
f 4/3/81 3/2/81 76/2/81 79/3/81
f 151/3/82 152/3/82 154/3/82 153/3/82
f 127/3/83 129/3/83 153/3/83 154/3/83
f 54/3/84 52/3/84 152/3/84 151/3/84
f 129/3/85 54/3/85 151/3/85 153/3/85
f 155/3/86 158/3/86 157/7/86 156/8/86
f 75/4/87 156/8/87 157/7/87 150/4/87
