# Blender 4.2.3 LTS
# www.blender.org
mtllib soda_can.mtl
o soda_can
v -0.000217 -0.164725 -0.107870
v -0.000217 0.164725 -0.107870
v 0.084400 -0.164725 -0.067121
v 0.084400 0.164725 -0.067121
v 0.105299 -0.164725 0.024443
v 0.105299 0.164725 0.024443
v 0.046742 -0.164725 0.097871
v 0.046742 0.164725 0.097871
v -0.047176 -0.164725 0.097871
v -0.047176 0.164725 0.097871
v -0.105733 -0.164725 0.024443
v -0.105733 0.164725 0.024443
v -0.084834 -0.164725 -0.067121
v -0.084834 0.164725 -0.067121
vn 0.4339 -0.0000 -0.9010
vn 0.9749 -0.0000 -0.2225
vn 0.7818 -0.0000 0.6235
vn -0.0000 -0.0000 1.0000
vn -0.7818 -0.0000 0.6235
vn -0.0000 1.0000 -0.0000
vn -0.9749 -0.0000 -0.2225
vn -0.4339 -0.0000 -0.9010
vn -0.0000 -1.0000 -0.0000
vt 1.201926 0.287950
vt 1.201926 0.988773
vt 0.997962 0.988773
vt 0.997962 0.287950
vt 0.793998 0.988773
vt 0.793998 0.287950
vt 0.590034 0.988773
vt 0.590034 0.287950
vt 0.386070 0.988773
vt 0.386070 0.287950
vt 0.182106 0.988773
vt 0.182106 0.287949
vt 0.138554 -0.001005
vt 0.264155 -0.000266
vt 0.338650 0.100861
vt 0.305944 0.226224
vt 0.190664 0.281423
vt 0.079619 0.224892
vt 0.056428 0.099200
vt -0.021858 0.988773
vt -0.021858 0.287949
vt -0.225822 0.988773
vt -0.225822 0.287950
vt 0.327646 0.118262
vt 0.321813 0.118262
vt 0.318176 0.123013
vt 0.319474 0.128938
vt 0.324730 0.131575
vt 0.329985 0.128938
vt 0.331283 0.123013
s 0
usemtl sodaCan
f 1/1/1 2/2/1 4/3/1 3/4/1
f 3/4/2 4/3/2 6/5/2 5/6/2
f 5/6/3 6/5/3 8/7/3 7/8/3
f 7/8/4 8/7/4 10/9/4 9/10/4
f 9/10/5 10/9/5 12/11/5 11/12/5
f 4/13/6 2/14/6 14/15/6 12/16/6 10/17/6 8/18/6 6/19/6
f 11/12/7 12/11/7 14/20/7 13/21/7
f 13/21/8 14/20/8 2/22/8 1/23/8
f 1/24/9 3/25/9 5/26/9 7/27/9 9/28/9 11/29/9 13/30/9
