# Blender 4.2.3 LTS
# www.blender.org
mtllib water.mtl
o visual.002
v 35.413090 -1.717812 14.684450
v 33.812473 -1.786255 12.725060
v 31.826971 -1.623545 20.255562
v 34.185982 -1.617251 19.338554
v 31.365294 -1.832446 12.080830
v 29.006289 -1.838740 12.997834
v 29.379793 -1.669735 19.611330
v 35.555756 -1.653258 17.210581
v 27.636513 -1.802733 15.125809
v 27.779179 -1.738179 17.651941
v 35.725246 -1.685535 15.932225
v 685.192932 0.055170 -243.636551
v 404.924194 -11.929396 -586.726990
v 57.261627 16.561371 731.868408
v 470.325684 17.663427 571.299805
v -23.578440 -20.017370 -699.531982
v -436.641602 -21.119415 -538.963867
v -371.240570 8.473394 619.062927
v 710.173889 11.358612 198.690475
v -676.490112 -14.814607 -166.354431
v -651.509155 -3.511172 275.972961
v 739.851807 5.706887 -25.150381
vn 0.0121 -0.9996 0.0249
vn -0.0118 0.9997 -0.0229
vn -0.0122 0.9996 -0.0246
vn 0.0121 -0.9996 0.0250
vn -0.0126 0.9996 -0.0250
vn -0.0123 0.9996 -0.0251
vn -0.0121 0.9996 -0.0268
vn -0.0125 0.9996 -0.0247
vn 0.0121 -0.9996 0.0247
vn -0.0124 0.9996 -0.0246
vn -0.0124 0.9996 -0.0251
vt 0.469602 0.495317
vt 0.468565 0.496744
vt 0.769371 0.904429
vt 0.950971 0.654478
vt 0.465209 0.492125
vt 0.464555 0.492739
vt 0.067190 0.203067
vt 0.181699 0.095570
vt 0.469602 0.493552
vt 0.468565 0.492125
vt 0.769371 0.095571
vt 0.950971 0.345522
vt 0.466887 0.497289
vt 0.475536 0.999903
vt 0.464172 0.493552
vt 0.464172 0.495317
vt 0.000099 0.654481
vt 0.000097 0.345524
vt 0.465209 0.496744
vt 0.181700 0.904432
vt 0.466887 0.491580
vt 0.475535 0.000098
s 0
usemtl Material
f 9/1/1 10/2/1 21/3/1 20/4/1
f 1/5/2 11/6/2 22/7/2 12/8/2
f 6/9/3 5/10/3 16/11/3 17/12/3
f 10/2/4 7/13/4 18/14/4 21/3/4
f 8/15/5 4/16/5 15/17/5 19/18/5
f 3/19/6 7/13/6 18/14/6 14/20/6
f 11/6/7 8/15/7 19/18/7 22/7/7
f 2/21/8 1/5/8 12/8/8 13/22/8
f 6/9/9 9/1/9 20/4/9 17/12/9
f 5/10/10 2/21/10 13/22/10 16/11/10
f 4/16/11 3/19/11 14/20/11 15/17/11
